REM MD5 5bc9d0eb2b61a541420f98e799753a47
FILE "Euro Demo Germany 10-02 (Germany).bin" BINARY
  TRACK 01 MODE2/2352
    INDEX 01 00:00:00
  TRACK 02 AUDIO
    INDEX 00 53:32:51
    INDEX 01 53:34:51
  TRACK 03 AUDIO
    INDEX 00 54:44:47
    INDEX 01 54:46:47
  TRACK 04 AUDIO
    INDEX 00 58:26:55
    INDEX 01 58:28:55
REM LEADOUT 61:30:12
